<?xml version="1.0" standalone="no"?>
<!DOCTYPE svg PUBLIC "-//W3C//DTD SVG 20010904//EN"
 "http://www.w3.org/TR/2001/REC-SVG-20010904/DTD/svg10.dtd">
<svg version="1.0" xmlns="http://www.w3.org/2000/svg"
 width="398.000000pt" height="398.000000pt" viewBox="0 0 398.000000 398.000000"
 preserveAspectRatio="xMidYMid meet">
<metadata>
Created by potrace 1.14, written by Peter Selinger 2001-2017
</metadata>
<g transform="translate(0.000000,398.000000) scale(0.100000,-0.100000)"
fill="#000000" stroke="none">
<path d="M1994 3184 c22 -52 22 -52 -32 -39 -66 17 -147 24 -163 14 -10 -6 -6
-15 19 -38 20 -17 29 -32 23 -35 -22 -14 -112 -2 -157 21 -25 13 -47 23 -50
23 -2 0 -4 -18 -4 -41 0 -38 -2 -40 -27 -39 -46 3 -51 1 -46 -19 4 -16 -4 -21
-47 -30 -72 -15 -146 -71 -95 -71 8 0 -5 -18 -29 -40 -24 -22 -47 -40 -51 -40
-4 0 -20 -9 -35 -20 -28 -20 -120 -190 -120 -222 0 -8 -9 -36 -21 -62 -34 -78
-46 -180 -43 -368 1 -95 7 -210 13 -255 12 -98 8 -118 -21 -102 -34 18 -89 -4
-118 -47 -20 -31 -25 -51 -27 -113 -2 -99 10 -162 47 -238 51 -104 132 -173
205 -173 6 0 21 -42 34 -92 60 -236 153 -387 308 -500 l42 -31 -31 -43 c-17
-24 -32 -44 -32 -44 -1 0 -59 -11 -131 -25 -71 -14 -146 -28 -165 -30 -84 -12
-106 -18 -142 -36 -21 -11 -38 -24 -38 -29 0 -5 51 -34 113 -65 447 -218 970
-241 1435 -61 91 35 213 94 246 119 19 14 18 16 -22 36 -22 11 -74 25 -114 31
-40 5 -131 20 -201 32 -124 21 -129 23 -144 52 -8 17 -23 40 -32 50 -11 13
-12 20 -5 23 18 6 85 63 132 113 95 99 157 222 204 403 12 45 24 86 28 90 4 4
20 10 36 13 56 9 85 27 124 76 73 92 110 198 110 319 0 117 -74 200 -153 170
-17 -7 -27 -7 -29 0 -2 6 2 54 9 107 15 112 16 284 2 392 -14 104 -56 235 -93
284 -17 22 -38 54 -46 70 -8 16 -32 43 -54 60 -21 17 -45 39 -55 50 -74 85
-141 139 -232 187 -25 14 -73 54 -106 89 -62 66 -145 123 -197 136 -26 6 -28
5 -22 -12z"/>
</g>
</svg>
